<?xml version="1.0" standalone="no"?>
<!DOCTYPE svg PUBLIC "-//W3C//DTD SVG 20010904//EN"
 "http://www.w3.org/TR/2001/REC-SVG-20010904/DTD/svg10.dtd">
<svg version="1.0" xmlns="http://www.w3.org/2000/svg"
 width="593.000000pt" height="583.000000pt" viewBox="0 0 593.000000 583.000000"
 preserveAspectRatio="xMidYMid meet">

<g transform="translate(0.000000,583.000000) scale(0.100000,-0.100000)"
fill="#000000" stroke="none">
<path d="M3080 5673 c-14 -2 -53 -14 -88 -25 -62 -22 -63 -22 -110 -3 -81 32
-113 31 -150 -3 -27 -26 -32 -37 -32 -77 0 -40 5 -52 34 -81 19 -19 43 -34 55
-34 18 0 21 6 21 39 0 57 15 91 41 91 15 0 19 -5 15 -15 -24 -64 -38 -148 -34
-211 6 -87 35 -139 110 -198 l50 -39 -4 -68 c-5 -86 -23 -112 -110 -160 -150
-83 -191 -133 -331 -414 -99 -197 -175 -325 -268 -452 -48 -64 -31 -72 -212
99 -71 68 -134 123 -140 123 -6 0 -20 -29 -32 -65 -11 -36 -28 -77 -39 -90
l-18 -25 6 50 6 51 -167 66 c-229 90 -207 86 -228 36 -12 -28 -20 -78 -23
-143 l-4 -100 124 -54 c68 -30 129 -59 136 -66 10 -9 -10 -39 -93 -144 -123
-156 -152 -226 -104 -252 69 -37 194 34 361 202 l106 108 6 -72 c3 -40 7 -146
9 -237 l3 -165 95 2 c52 1 184 13 294 28 298 38 275 33 275 66 0 35 7 35 -172
4 -126 -22 -406 -51 -413 -43 -2 2 12 29 30 60 19 31 50 87 69 123 31 59 45
73 114 119 42 28 121 86 174 129 l97 78 63 -47 63 -46 8 -136 c12 -215 12
-256 0 -437 -17 -237 -17 -826 -1 -847 19 -24 325 -31 334 -8 17 45 111 627
115 710 1 42 20 -45 48 -231 41 -259 69 -424 83 -472 l11 -37 163 0 163 0 5
53 c3 28 10 153 14 277 8 199 6 252 -14 460 -26 265 -41 660 -25 660 5 0 42
24 82 54 l72 55 26 -20 c14 -11 88 -79 164 -151 124 -117 259 -228 279 -228 3
0 16 12 27 26 43 55 16 153 -76 271 -32 41 -69 90 -83 108 -40 54 -123 159
-137 173 -7 8 -26 30 -41 50 -15 21 -37 48 -49 61 -12 14 -27 39 -33 55 -6 17
-24 58 -40 91 -16 33 -47 102 -69 152 -54 130 -119 240 -167 288 -23 23 -81
61 -128 85 -48 24 -92 52 -97 62 -6 10 -13 41 -16 67 l-6 49 49 8 c62 9 90 37
99 100 4 27 14 64 23 83 13 28 13 39 3 65 -17 42 -47 131 -61 184 -27 103
-190 195 -310 175z m255 -299 c16 -71 18 -195 3 -209 -3 -4 -30 -10 -60 -14
-29 -4 -58 -10 -63 -13 -6 -4 -8 -45 -4 -105 3 -54 2 -102 -2 -107 -11 -13
-146 -13 -159 0 -7 7 -6 40 5 114 9 57 17 105 18 105 1 1 18 12 37 25 60 40
62 46 35 101 -14 27 -25 51 -25 54 0 3 12 5 28 5 39 0 84 31 122 84 18 25 36
43 41 40 4 -2 15 -38 24 -80z m446 -1201 c80 -111 150 -199 229 -288 68 -76
160 -196 180 -233 13 -25 6 -72 -10 -72 -26 0 -552 511 -582 566 l-18 32 63
41 c34 22 65 41 69 41 4 0 35 -39 69 -87z m-1193 32 c28 -20 52 -41 52 -47 0
-31 -263 -288 -390 -381 -30 -22 -72 -53 -92 -69 -48 -36 -88 -52 -88 -35 0 7
77 102 171 211 93 110 196 234 227 277 31 44 59 79 62 79 3 0 29 -16 58 -35z
m1028 -183 c41 -30 70 -60 63 -66 -12 -10 -225 -146 -287 -183 l-72 -43 -50
36 c-28 20 -50 38 -50 40 0 2 45 33 101 69 55 36 130 90 167 120 36 30 71 55
77 55 7 0 30 -13 51 -28z m-784 -63 c178 -101 382 -236 426 -282 36 -37 40
-72 11 -90 -19 -12 -111 33 -349 168 -345 196 -341 194 -329 218 15 29 60 67
81 67 9 0 81 -37 160 -81z m-1018 -100 c32 -38 32 -46 -2 -86 -32 -37 -271
-243 -282 -243 -22 0 -18 36 7 69 50 68 238 291 245 291 3 0 18 -14 32 -31z
m1129 -986 c-7 -2 -21 -2 -30 0 -10 3 -4 5 12 5 17 0 24 -2 18 -5z m92 -75
c-2 -13 -9 -52 -16 -88 -9 -55 -24 -124 -54 -257 -5 -22 -9 -23 -120 -23
l-115 0 6 183 c3 100 7 188 10 195 2 9 41 12 149 12 l145 0 -5 -22z m493 -3
c2 -2 0 -85 -4 -184 l-7 -181 -103 0 c-99 0 -104 1 -108 23 -3 12 -15 85 -26
162 -12 77 -23 153 -27 169 l-5 29 138 -7 c76 -4 140 -8 142 -11z"/>
<path d="M2270 5531 c-67 -14 -121 -54 -149 -108 -6 -13 -23 -62 -37 -110 -14
-49 -35 -107 -46 -130 l-22 -43 21 -22 c15 -16 25 -46 31 -96 6 -40 15 -79 22
-86 6 -8 36 -17 67 -21 l55 -7 -4 -81 c-3 -51 -12 -96 -23 -119 -10 -21 -15
-41 -12 -45 19 -18 99 1 199 47 94 44 115 50 172 50 36 0 67 4 68 10 0 6 1 14
2 20 1 5 -19 20 -44 32 -34 17 -48 32 -59 61 -8 20 -11 40 -9 43 3 3 47 8 98
11 l93 6 -6 94 c-9 139 -26 221 -58 289 -64 137 -231 232 -359 205z m-56 -268
c25 -36 30 -54 33 -120 3 -49 -1 -95 -9 -123 -14 -44 -15 -45 -56 -44 -23 0
-45 4 -50 8 -15 16 -14 176 3 251 20 89 32 94 79 28z m151 5 c15 -26 20 -52
20 -125 0 -54 -5 -96 -11 -103 -8 -8 -10 2 -7 37 4 43 -14 160 -32 206 -12 29
10 19 30 -15z m183 -175 c-2 -42 -8 -68 -15 -71 -10 -3 -13 20 -13 95 1 93 2
97 16 70 10 -19 14 -49 12 -94z m-133 -214 c10 -28 13 -54 9 -58 -5 -4 -39
-25 -76 -45 l-68 -37 0 64 c0 36 3 79 6 96 6 30 8 31 59 31 l53 0 17 -51z"/>
<path d="M3870 5486 c-70 -16 -104 -34 -166 -90 -57 -50 -74 -92 -74 -177 0
-60 20 -110 74 -189 28 -40 36 -62 36 -95 0 -81 -9 -101 -48 -114 -58 -17 -66
-25 -53 -50 11 -19 19 -21 89 -19 81 3 91 0 187 -59 59 -37 162 -53 149 -24
-4 9 -9 64 -12 124 l-4 107 47 0 c58 0 100 37 110 96 3 21 15 60 27 85 l20 46
-26 50 c-14 28 -33 82 -42 119 -9 38 -23 81 -30 96 -39 76 -170 120 -284 94z
m120 -55 c0 -12 -67 -70 -96 -83 -25 -12 -33 -38 -11 -38 18 0 97 52 121 78
22 25 36 28 36 8 0 -8 -26 -37 -57 -65 -73 -64 -46 -69 31 -6 33 27 58 40 62
34 14 -23 -109 -120 -171 -135 -68 -16 -151 -78 -167 -126 -8 -22 -47 20 -54
60 -17 87 59 202 168 256 51 25 138 36 138 17z m131 -168 c6 -21 23 -60 36
-86 16 -32 21 -53 15 -60 -5 -7 -17 -37 -26 -69 -14 -48 -21 -58 -47 -67 -18
-6 -54 -11 -80 -11 l-49 0 0 -115 c0 -63 -3 -115 -6 -115 -4 0 -33 16 -65 36
l-59 35 0 97 c0 74 -5 107 -20 139 l-19 43 26 30 c14 17 60 49 102 70 42 22
96 55 121 74 25 19 48 35 52 35 3 1 12 -16 19 -36z"/>
<path d="M1625 5333 c-61 -15 -125 -105 -125 -176 0 -21 -11 -69 -25 -109 -23
-67 -24 -73 -10 -117 8 -25 17 -63 21 -85 6 -42 26 -64 98 -108 l49 -29 -5
-89 c-4 -71 -11 -98 -32 -135 -14 -26 -26 -49 -26 -51 0 -6 76 24 126 49 27
14 80 48 118 76 51 37 82 52 115 56 25 4 53 7 61 8 8 1 15 11 15 22 0 14 -11
22 -45 30 -42 10 -45 13 -48 46 l-3 36 82 7 c108 9 120 19 77 63 -18 19 -48
41 -66 48 -18 8 -56 37 -86 65 -29 27 -56 50 -59 50 -18 0 -3 -43 28 -82 19
-24 41 -55 50 -70 l16 -28 -39 0 c-29 0 -47 8 -74 33 -43 38 -98 124 -123 190
-15 39 -33 61 -87 104 -68 54 -69 55 -51 75 26 30 99 60 126 52 12 -3 60 -24
107 -46 114 -54 142 -58 158 -24 7 15 12 28 12 30 0 6 -144 91 -175 103 -30
11 -142 15 -180 6z m62 -408 c41 -80 71 -124 110 -162 73 -71 72 -88 -14 -148
-101 -71 -97 -72 -89 26 l8 84 -78 71 -78 71 -4 75 c-3 53 1 85 12 113 l16 38
30 -28 c17 -16 56 -79 87 -140z"/>
<path d="M4342 5149 c-37 -11 -65 -55 -43 -68 6 -4 35 -4 64 0 57 10 136 -1
180 -24 l28 -15 -48 -93 c-62 -120 -123 -183 -228 -233 -96 -46 -91 -42 -76
-60 9 -11 21 -12 54 -4 111 25 199 85 267 184 28 40 55 76 59 79 14 8 20 -18
27 -114 7 -87 6 -90 -19 -115 -19 -19 -36 -26 -65 -26 -22 0 -44 -6 -50 -13
-6 -7 -13 -62 -14 -123 l-3 -109 -96 93 c-52 50 -98 92 -102 92 -4 0 -13 -10
-21 -22 -13 -20 -13 -30 0 -77 7 -30 26 -107 40 -170 l27 -116 4 -750 c2 -412
4 -771 4 -797 0 -46 2 -48 37 -58 20 -6 54 -13 75 -16 20 -4 40 -11 43 -16 9
-15 -25 -223 -49 -295 l-23 -68 -67 -3 c-66 -3 -67 -3 -67 -31 0 -28 1 -28 77
-35 42 -3 80 -3 85 2 5 5 98 407 98 425 0 6 142 -12 149 -18 3 -4 6 -70 6
-148 0 -114 -4 -151 -18 -190 l-19 -47 -53 0 c-66 0 -85 -7 -85 -31 0 -17 8
-19 84 -19 l83 0 21 68 c36 119 46 184 44 315 -1 105 2 127 14 127 18 0 18 35
0 305 -8 116 -18 318 -21 450 -7 303 -21 464 -45 559 -25 92 -88 219 -136 271
-20 22 -48 55 -62 73 l-25 33 51 -7 c29 -3 52 -4 52 -2 0 3 -7 21 -15 40 -8
20 -17 66 -20 104 -4 38 -8 79 -11 91 -3 19 3 24 49 37 77 22 80 27 128 184
11 39 10 47 -9 86 -11 24 -26 72 -32 107 -6 35 -18 75 -25 90 -44 84 -189 131
-303 98z"/>
<path d="M4383 4998 c-21 -18 -41 -38 -45 -44 -4 -6 -33 -29 -65 -50 -31 -21
-64 -44 -73 -51 -84 -65 -93 -79 -65 -103 27 -22 111 27 218 129 51 48 107
122 107 140 0 22 -40 10 -77 -21z"/>
<path d="M1141 4994 c-46 -20 -57 -37 -76 -119 -9 -38 -30 -100 -46 -137 l-30
-68 20 -27 c11 -16 25 -54 31 -85 14 -70 35 -88 102 -88 l48 0 0 -75 c0 -100
-16 -167 -46 -196 -33 -31 -30 -39 11 -39 l35 0 0 -426 c0 -281 3 -423 10
-419 5 3 10 4 10 1 0 -4 -87 -46 -96 -46 -2 0 -4 192 -4 428 -1 375 -2 424
-15 402 -11 -20 -14 -82 -15 -311 0 -157 -3 -340 -7 -407 l-6 -121 -36 -8 -36
-9 -2 -154 c-1 -85 -4 -243 -7 -350 -7 -229 15 -552 40 -607 l16 -33 74 0 c72
0 74 1 74 25 0 23 -3 25 -49 25 -85 0 -81 -10 -81 185 0 195 -4 185 80 185 56
0 50 14 70 -165 7 -60 22 -128 39 -170 25 -67 28 -70 62 -73 57 -5 89 12 89
47 0 29 -2 30 -52 33 l-51 3 -19 55 c-13 37 -21 96 -25 176 l-6 121 69 7 69 7
-2 162 c-1 89 -8 233 -14 320 -7 87 -9 200 -5 252 4 52 3 95 -1 95 -5 0 -19
-7 -31 -16 l-22 -15 0 430 0 429 33 21 c36 22 76 93 97 169 l11 44 -53 56
c-73 78 -99 113 -153 212 -26 47 -60 102 -76 122 -16 20 -29 41 -29 47 0 5 15
19 34 30 27 17 50 21 119 21 47 0 88 4 91 9 4 5 2 21 -4 35 -9 26 -11 26 -107
26 -64 -1 -110 -6 -132 -16z m33 -301 c63 -123 129 -211 186 -251 22 -15 39
-32 40 -37 0 -20 -29 -51 -88 -93 l-60 -42 -7 129 -7 130 -65 7 c-76 8 -83 18
-83 122 0 60 14 142 25 142 2 0 29 -48 59 -107z m106 -850 c1 -197 5 -388 9
-425 l7 -66 -34 -17 c-19 -9 -37 -13 -41 -10 -3 4 -8 194 -9 424 l-4 416 34
17 c18 9 34 17 35 17 1 1 3 -160 3 -356z"/>
<path d="M1300 4828 c0 -29 60 -120 131 -200 30 -33 57 -67 62 -74 8 -14 37
-8 37 7 0 5 -27 38 -59 73 -32 35 -71 83 -87 107 -61 98 -69 109 -76 109 -5 0
-8 -10 -8 -22z"/>
<path d="M4810 4793 c-26 -5 -40 -19 -40 -40 0 -10 25 -13 92 -13 133 0 137
-5 93 -125 -18 -51 -40 -106 -48 -121 -26 -50 -86 -111 -147 -151 -56 -36 -74
-63 -50 -78 23 -15 96 22 156 78 51 47 74 80 120 170 54 106 58 110 65 82 31
-137 32 -144 21 -201 -17 -80 -24 -86 -96 -82 l-61 3 -3 -92 c-1 -51 -6 -93
-11 -93 -4 0 -20 13 -36 30 -44 46 -100 81 -118 74 -31 -12 -31 -45 -1 -70
115 -96 257 -184 273 -168 2 2 -6 26 -17 53 -12 27 -25 81 -28 120 l-7 70 41
7 c70 11 100 36 107 91 4 26 16 61 27 76 l20 29 -21 49 c-12 27 -25 80 -30
118 -10 79 -19 99 -62 135 -60 50 -141 67 -239 49z"/>
<path d="M835 4680 c-62 -9 -114 -31 -137 -57 -10 -10 -24 -52 -33 -91 -8 -40
-22 -86 -30 -102 -19 -36 -19 -59 0 -84 8 -11 18 -41 21 -68 4 -27 16 -60 27
-75 18 -23 25 -25 68 -20 l47 6 7 -38 c7 -45 -1 -103 -23 -149 -13 -29 -13
-35 -1 -43 22 -13 60 0 130 48 67 45 89 74 89 118 0 13 12 37 26 52 39 42 107
182 100 207 -3 11 -22 30 -43 41 -47 25 -98 99 -119 174 -9 31 -23 64 -32 74
-16 18 -20 19 -97 7z m-74 -193 c41 -28 58 -71 58 -154 1 -70 -10 -83 -72 -83
-34 0 -34 1 -41 53 -11 97 -4 207 14 207 4 0 22 -10 41 -23z m189 -339 c0 -26
-9 -40 -40 -66 -21 -17 -41 -29 -43 -25 -3 5 -2 31 0 60 6 54 5 54 71 62 7 0
12 -11 12 -31z"/>
<path d="M297 4025 c-19 -18 -20 -21 -47 -150 -143 -666 -81 -1741 136 -2366
42 -122 109 -265 126 -272 7 -2 23 -1 36 4 30 11 28 41 -9 119 -117 247 -212
672 -261 1165 -16 160 -16 707 0 896 13 155 47 402 66 474 l12 49 147 -3 c154
-3 177 2 177 40 0 37 -38 46 -206 53 -139 6 -164 5 -177 -9z"/>
<path d="M5116 4024 c-19 -19 -21 -60 -3 -71 6 -4 109 -10 227 -13 l215 -5 7
-50 c104 -686 105 -1314 3 -1890 -50 -284 -115 -499 -196 -654 -52 -100 -60
-135 -31 -149 35 -19 58 4 116 117 134 262 230 686 266 1176 13 180 13 689 0
870 -23 309 -77 651 -107 673 -12 9 -79 12 -249 12 -198 0 -235 -2 -248 -16z"/>
<path d="M3605 3479 c-10 -15 4 -79 18 -83 7 -2 55 -9 107 -16 52 -6 175 -27
273 -46 98 -19 203 -34 233 -34 l54 0 0 45 c0 38 -3 45 -22 50 -110 24 -583
95 -634 95 -13 0 -26 -5 -29 -11z"/>
<path d="M1843 3445 c-69 -22 -246 -45 -343 -45 -78 0 -91 -2 -100 -19 -5 -11
-7 -27 -3 -37 6 -15 19 -16 147 -10 78 4 195 15 261 24 l120 18 3 42 c3 38 1
42 -20 41 -13 -1 -42 -7 -65 -14z"/>
<path d="M4777 3259 c-9 -34 3 -79 22 -79 9 0 81 -16 161 -35 180 -43 190 -44
190 -7 0 41 -14 55 -67 68 -26 7 -86 23 -134 37 -47 13 -103 28 -126 31 -36 7
-41 5 -46 -15z"/>
<path d="M930 3261 c-8 -5 -51 -16 -95 -26 -200 -44 -180 -34 -183 -83 -3 -43
-3 -44 25 -38 15 3 81 15 145 27 125 24 121 21 134 92 6 37 1 43 -26 28z"/>
<path d="M2170 3181 c0 -6 9 -79 19 -163 11 -84 21 -173 23 -198 l3 -45 -134
3 -134 3 6 -96 c9 -128 37 -342 51 -385 l11 -35 118 -3 117 -3 0 31 c0 29 -1
30 -47 31 -27 0 -68 4 -93 7 l-45 7 -17 95 c-9 52 -17 134 -17 183 l-1 87 100
0 c55 0 100 -3 100 -6 0 -4 14 -82 30 -173 30 -160 46 -221 59 -221 3 0 67 7
143 16 l136 17 6 30 c3 16 6 68 6 116 0 47 5 148 12 223 6 76 9 141 5 145 -4
3 -60 -2 -125 -12 -64 -10 -140 -20 -167 -23 l-51 -4 -23 122 c-37 193 -55
255 -74 258 -9 2 -17 -1 -17 -7z m390 -605 l0 -174 -62 -10 c-35 -6 -82 -13
-105 -17 l-41 -6 -11 53 c-6 29 -17 96 -26 148 -8 52 -17 105 -20 117 -4 17 1
24 29 33 37 12 138 27 199 29 l37 1 0 -174z"/>
<path d="M4060 3145 c0 -10 -72 -370 -74 -372 -1 -2 -78 4 -170 13 -93 8 -170
13 -172 11 -5 -4 11 -330 22 -489 8 -100 -2 -93 141 -104 l92 -7 7 29 c8 36
92 375 105 427 12 44 20 45 129 18 l75 -18 -3 -54 c-3 -58 -39 -320 -45 -325
-2 -2 -41 3 -88 10 -46 8 -87 11 -90 7 -3 -3 -4 -27 -1 -52 l4 -46 66 -7 c37
-3 83 -6 102 -6 35 0 36 1 47 53 18 81 77 486 72 491 -3 3 -56 13 -119 22 -63
9 -117 18 -119 20 -3 3 5 69 18 147 27 173 30 228 14 234 -7 3 -13 2 -13 -2z
m-215 -430 c119 -9 125 -11 125 -43 -1 -43 -37 -199 -67 -286 l-27 -78 -86 7
c-47 4 -88 10 -91 13 -8 8 -28 383 -21 395 2 5 23 6 46 3 22 -3 77 -8 121 -11z"/>
<path d="M1578 3125 c-3 -6 1 -50 8 -98 7 -49 14 -137 16 -195 l3 -107 -100
-5 -100 -5 2 -40 c15 -259 21 -315 48 -402 l29 -93 83 0 83 0 0 40 0 39 -62 3
-62 3 -7 35 c-20 97 -49 324 -44 341 5 16 16 19 69 19 l62 0 48 -193 c26 -107
51 -199 55 -205 4 -7 19 -8 46 -2 22 5 68 10 103 10 34 0 62 4 62 10 0 6 -35
10 -85 10 -47 0 -85 1 -85 3 0 1 -18 85 -40 187 -22 101 -36 188 -32 192 4 4
41 10 82 13 166 13 160 11 160 57 0 34 -2 39 -17 33 -46 -20 -124 -35 -188
-38 l-69 -2 -18 148 c-19 154 -40 258 -50 242z"/>
<path d="M4966 2722 c-2 -4 -9 -36 -15 -72 -21 -120 -13 -110 -86 -110 l-65 0
0 -34 c0 -38 14 -46 87 -46 l41 0 -5 -42 c-2 -24 -14 -90 -25 -146 -18 -88
-19 -105 -7 -113 8 -5 17 -9 20 -9 7 0 46 171 57 250 l8 55 34 -3 c79 -6 83
-9 76 -55 -3 -23 -8 -88 -12 -144 -6 -100 -6 -103 15 -103 11 0 21 6 21 13 0
6 5 71 11 142 10 103 16 134 30 148 42 40 21 62 -71 73 l-75 9 -3 98 c-2 75
-6 97 -17 97 -7 0 -16 -3 -19 -8z"/>
<path d="M624 2498 c-15 -24 12 -357 30 -375 16 -16 18 17 7 120 -6 62 -11
128 -11 145 l0 32 54 0 55 0 10 -52 c6 -29 20 -96 32 -148 11 -52 20 -106 20
-119 -1 -40 16 -51 80 -51 l59 0 0 34 c0 33 -1 34 -50 41 -56 8 -55 5 -65 115
-3 36 -8 89 -11 118 l-6 52 29 0 c67 0 110 75 53 91 -46 13 -278 10 -286 -3z"/>
<path d="M2690 2171 c0 -50 3 -51 151 -51 l140 0 -5 28 c-2 15 -5 30 -5 35 -1
4 -64 7 -141 7 -131 0 -140 -1 -140 -19z"/>
<path d="M3265 2159 c-4 -11 -4 -23 -1 -27 11 -10 229 -26 269 -18 33 6 37 10
37 36 l0 30 -149 0 c-143 0 -150 -1 -156 -21z"/>
<path d="M2430 2153 c-93 -14 -90 -12 -90 -43 l0 -30 69 0 c37 0 96 3 130 6
l61 7 0 33 0 34 -72 -1 c-40 -1 -84 -3 -98 -6z"/>
<path d="M2025 2112 c-11 -29 -1 -32 110 -32 113 0 115 0 115 23 0 22 -2 23
-110 22 -82 0 -111 -3 -115 -13z"/>
<path d="M1793 2113 c-52 -4 -53 -5 -53 -35 l0 -31 61 7 c34 3 76 6 94 6 23 0
34 5 37 18 11 43 4 45 -139 35z"/>
<path d="M3655 2099 c-4 -11 -4 -23 0 -27 7 -7 215 -20 228 -14 4 2 7 16 7 33
l0 29 -114 0 c-107 0 -115 -1 -121 -21z"/>
<path d="M3978 2094 c-5 -4 -8 -16 -8 -26 0 -16 10 -18 93 -18 50 0 102 -3
115 -6 19 -5 22 -2 22 20 0 23 -4 26 -33 26 -19 0 -67 3 -108 6 -41 3 -77 3
-81 -2z"/>
<path d="M1480 2062 c0 -43 17 -52 95 -52 85 0 110 13 100 53 -7 27 -7 27
-101 27 l-94 0 0 -28z"/>
<path d="M1280 2029 c0 -17 4 -20 23 -15 12 3 39 6 60 6 26 0 37 4 37 15 0 12
-13 15 -60 15 -54 0 -60 -2 -60 -21z"/>
<path d="M1050 1975 c0 -13 12 -15 67 -13 42 2 68 8 71 16 3 9 -15 12 -67 12
-57 0 -71 -3 -71 -15z"/>
<path d="M1295 1934 c-7 -3 -9 -105 -7 -314 l4 -309 -26 -45 c-14 -24 -49 -64
-77 -89 -28 -25 -47 -47 -42 -50 4 -2 33 -1 63 4 30 4 101 8 156 8 l102 1 25
34 c14 18 51 45 81 59 56 27 76 49 76 86 0 19 -6 21 -66 21 -63 0 -67 -1 -140
-56 -42 -30 -78 -53 -81 -51 -2 3 8 24 23 47 l28 43 -2 286 c-2 157 -6 296 -9
309 -4 19 -11 22 -52 21 -25 0 -51 -3 -56 -5z"/>
<path d="M4963 1934 c-7 -3 -13 -12 -13 -20 0 -11 16 -14 71 -14 62 0 70 2 67
18 -2 13 -15 17 -58 19 -30 1 -61 -1 -67 -3z"/>
<path d="M883 1913 c15 -2 39 -2 55 0 15 2 2 4 -28 4 -30 0 -43 -2 -27 -4z"/>
<path d="M2764 1601 c-39 -9 -103 -34 -144 -55 -66 -33 -179 -115 -205 -148
-5 -7 -27 -34 -48 -60 -46 -57 -100 -170 -124 -258 -13 -48 -18 -102 -18 -210
0 -126 3 -154 24 -210 80 -225 209 -378 396 -470 128 -62 189 -75 345 -74 120
0 143 3 214 27 163 57 275 145 379 299 133 195 164 515 72 725 -58 130 -165
259 -269 321 -191 116 -432 160 -622 113z m538 -187 l86 -55 7 -72 c4 -40 5
-90 3 -112 l-3 -39 -85 -32 c-47 -18 -97 -33 -111 -33 -26 -1 -154 76 -171
101 -4 7 -8 56 -8 109 l0 96 38 25 c77 52 127 78 142 72 8 -3 54 -30 102 -60z
m-465 4 l93 -43 0 -81 c0 -130 -2 -135 -83 -188 -40 -25 -80 -46 -90 -46 -10
0 -62 19 -114 42 l-95 42 7 100 c4 58 12 104 18 108 7 4 46 30 87 57 41 27 77
50 80 50 3 1 47 -18 97 -41z m662 -425 c28 -31 51 -64 51 -72 0 -9 -15 -70
-34 -136 l-33 -120 -64 -22 c-35 -12 -73 -22 -84 -22 -11 0 -53 30 -94 68
l-74 68 16 69 c9 38 19 83 22 99 5 28 14 34 118 77 62 25 115 46 119 47 3 0
29 -25 57 -56z m-882 11 c48 -20 94 -42 101 -48 13 -12 52 -142 52 -174 0 -9
-33 -50 -73 -90 l-73 -72 -76 28 c-43 15 -80 30 -83 34 -5 5 -55 228 -55 247
0 15 91 111 105 111 7 0 53 -16 102 -36z m-265 -231 c15 -76 25 -139 23 -141
-9 -9 -29 14 -46 53 -26 58 -39 225 -17 225 10 0 21 -35 40 -137z m1278 -18
c-10 -63 -26 -105 -40 -105 -15 0 -12 33 12 134 20 85 22 89 29 56 4 -18 4
-57 -1 -85z m-523 -91 c13 -8 50 -40 83 -72 l60 -57 -19 -63 c-11 -35 -25 -70
-33 -79 -15 -18 -153 -83 -177 -83 -17 0 -146 39 -219 66 -39 15 -47 23 -73
81 -16 36 -29 69 -29 75 0 11 -1 10 94 97 l68 64 112 -7 c70 -5 119 -13 133
-22z m-323 -377 c72 -41 53 -65 -29 -38 -66 21 -89 36 -81 50 12 18 68 12 110
-12z m482 -2 c-21 -16 -119 -55 -138 -55 -6 0 -3 9 7 20 19 20 93 48 130 49
20 0 20 0 1 -14z"/>
<path d="M3661 1326 c-13 -23 -11 -29 22 -78 20 -29 42 -68 48 -85 l11 -33
180 0 c215 0 221 6 85 84 -48 28 -108 68 -134 89 -32 26 -56 37 -78 37 -18 0
-52 3 -76 6 -40 6 -46 4 -58 -20z"/>
<path d="M3994 1323 c-13 -49 3 -71 64 -90 39 -12 70 -31 100 -60 l43 -43 99
0 c54 0 101 4 104 9 13 20 -10 43 -82 83 -43 23 -97 60 -121 83 -43 40 -44 40
-123 40 -74 1 -79 -1 -84 -22z"/>
<path d="M4343 1332 c-53 -2 -63 -6 -63 -21 0 -23 19 -39 107 -90 40 -23 79
-51 86 -62 11 -16 30 -21 84 -26 49 -4 72 -2 77 6 13 20 -22 59 -71 81 -27 12
-64 36 -83 53 -64 59 -71 62 -137 59z"/>
<path d="M1764 1294 c-97 -66 -204 -147 -204 -155 0 -11 172 -12 391 -2 l156
6 34 60 c19 33 40 73 47 89 l12 28 -86 0 -86 0 -104 -70 c-58 -38 -110 -70
-117 -70 -7 0 16 27 51 60 34 33 62 65 62 70 0 6 -26 10 -59 10 -46 0 -66 -5
-97 -26z"/>
</g>
</svg>
